<svg width="14" height="14" viewBox="0 0 14 14" fill="none" xmlns="http://www.w3.org/2000/svg">
<path d="M0 8.5H2V11.5H0V8.5Z" fill="#EA4335"/>
<path d="M2 11.5H7V13.5H2V11.5Z" fill="#EA4335"/>
<path d="M0 11.5H2V13.5C0.895431 13.5 0 12.6046 0 11.5Z" fill="#EA4335"/>
<path d="M14 8H12V3.5H14V8Z" fill="#FBBC04"/>
<path d="M12 3.5H10.5L9.5 1.5H12V3.5Z" fill="#FBBC04"/>
<path d="M14 3.5H12V1.5C13.1046 1.5 14 2.39543 14 3.5Z" fill="#FBBC04"/>
<path d="M9 7.5C9 8.60457 8.10457 9.5 7 9.5C5.89543 9.5 5 8.60457 5 7.5C5 6.39543 5.89543 5.5 7 5.5C8.10457 5.5 9 6.39543 9 7.5Z" fill="#4285F4"/>
<path d="M14 12C14 12.8284 13.3284 13.5 12.5 13.5C11.6716 13.5 11 12.8284 11 12C11 11.1716 11.6716 10.5 12.5 10.5C13.3284 10.5 14 11.1716 14 12Z" fill="#34A853"/>
<path d="M9.5 1.5L10.5 3.5H2V1.5H9.5Z" fill="#4285F4"/>
<path d="M2 3.5V6.5H0V3.5H2Z" fill="#4285F4"/>
<path d="M2 1.5V3.5H0C0 2.39543 0.895431 1.5 2 1.5Z" fill="#4285F4"/>
<path d="M5 0H9L9.5 1.5H4.5L5 0Z" fill="#4285F4"/>
</svg>
