<svg width="204" height="66" viewBox="0 0 204 66" fill="none" xmlns="http://www.w3.org/2000/svg">
<path fill-rule="evenodd" clip-rule="evenodd" d="M47.182 41.443C50.9479 36.9194 52 27.8855 51 23.8855H43.5H26V30.8855H43.162C42.8355 33.0622 42.1946 35.1182 40.9369 36.6289C38.3081 39.7865 34.6398 41.9883 30.5365 42.8711C26.4332 43.754 22.1397 43.2653 18.3637 41.4857C14.5876 39.7061 11.5543 36.7417 9.76348 33.0811C7.97274 29.4204 7.5314 25.2819 8.51226 21.3476C9.4931 17.4133 11.8376 13.9179 15.1594 11.4374C18.4811 8.95697 22.582 7.63947 26.7861 7.70206C30.9902 7.76463 35.0468 9.20357 38.2872 11.7817L43.3861 5.84747C38.744 2.1541 32.9326 0.0927138 26.9099 0.0030532C20.8872 -0.0866074 15.0124 1.80083 10.2537 5.35425C5.49499 8.90769 2.13629 13.9152 0.731164 19.5514C-0.673987 25.1876 -0.0417546 31.1164 2.52364 36.3605C5.08904 41.6047 9.43456 45.8514 14.844 48.4008C20.2535 50.9502 26.4043 51.6503 32.2826 50.3855C38.1608 49.1207 43.416 45.9666 47.182 41.443ZM43.25 30.2355C43.2563 30.1838 43.2624 30.1321 43.2684 30.0803L43.25 30.1355V30.2355ZM43.5 24.7637V23.8855L43.5001 24.1743C43.5002 24.3678 43.5002 24.5644 43.5 24.7637Z" fill="white"/>
<path d="M86 34.5C86 43.6127 78.8366 51 70 51C61.1634 51 54 43.6127 54 34.5C54 25.3873 61.1634 18 70 18C78.8366 18 86 25.3873 86 34.5ZM60.5633 34.5C60.5633 39.8746 64.7883 44.2316 70 44.2316C75.2117 44.2316 79.4367 39.8746 79.4367 34.5C79.4367 29.1254 75.2117 24.7684 70 24.7684C64.7883 24.7684 60.5633 29.1254 60.5633 34.5Z" fill="white"/>
<path d="M122 34.5C122 43.6127 114.837 51 106 51C97.1634 51 90 43.6127 90 34.5C90 25.3873 97.1634 18 106 18C114.837 18 122 25.3873 122 34.5ZM96.5633 34.5C96.5633 39.8746 100.788 44.2316 106 44.2316C111.212 44.2316 115.437 39.8746 115.437 34.5C115.437 29.1254 111.212 24.7684 106 24.7684C100.788 24.7684 96.5633 29.1254 96.5633 34.5Z" fill="white"/>
<path fill-rule="evenodd" clip-rule="evenodd" d="M150.5 47.778C147.843 49.8029 144.557 51 141 51C132.163 51 125 43.6127 125 34.5C125 25.3873 132.163 18 141 18C144.557 18 147.843 19.1971 150.5 21.222V19H157V34.5V49.5C157 53.2503 155.761 56.8887 153.488 59.8157C151.214 62.7427 148.041 64.7836 144.492 65.6022C140.943 66.4207 137.23 65.9681 133.964 64.3188C130.698 62.6696 128.074 59.9221 126.525 56.5292L132.462 53.6458C133.376 55.647 134.924 57.2674 136.85 58.2402C138.776 59.2129 140.967 59.4799 143.06 58.9971C145.153 58.5143 147.024 57.3105 148.365 55.5842C149.706 53.8578 150.437 51.7119 150.437 49.5H150.5V47.778ZM131.563 34.5C131.563 39.8747 135.788 44.2317 141 44.2317C146.212 44.2317 150.437 39.8747 150.437 34.5C150.437 29.1253 146.212 24.7683 141 24.7683C135.788 24.7683 131.563 29.1253 131.563 34.5Z" fill="white"/>
<rect x="162" y="1" width="7" height="49" fill="white"/>
<path fill-rule="evenodd" clip-rule="evenodd" d="M197.084 21.0862C200.114 23.2739 202.336 26.4515 203.379 30.0869L198.479 31.493L198.5 31.5L197 32L180 39H179.58C179.667 39.169 179.76 39.3358 179.857 39.5002C181.005 41.4349 182.758 42.9172 184.825 43.6987C186.891 44.4803 189.145 44.5139 191.209 43.7936C193.272 43.0734 195.021 41.6431 196.161 39.7424L201.695 43.2971C199.781 46.4867 196.847 48.8867 193.384 50.0953C189.921 51.3039 186.139 51.2477 182.672 49.9362C179.204 48.6246 176.261 46.1373 174.336 42.8906C172.411 39.644 171.62 35.8352 172.096 32.1019C172.573 28.3687 174.287 24.9376 176.952 22.3831C179.617 19.8286 183.071 18.3058 186.736 18.0697C190.4 17.8337 194.054 18.8986 197.084 21.0862ZM178.5 35.4178V35L178.461 34.9614C178.471 35.1139 178.484 35.2661 178.5 35.4178ZM178.446 34.0537C178.456 33.726 178.481 33.3979 178.523 33.0709C178.806 30.8462 179.828 28.8015 181.416 27.2792C183.004 25.757 185.062 24.8495 187.246 24.7088C189.431 24.5681 191.608 25.2028 193.413 26.5064C194.137 27.0292 194.784 27.6469 195.339 28.339L195 28L178.5 34L178.446 34.0537Z" fill="white"/>
</svg>
