<svg width="14" height="19" viewBox="0 0 14 19" fill="none" xmlns="http://www.w3.org/2000/svg">
<path d="M2.51534 14.5C1.69219 13.8468 0.992582 12.9666 0.56927 12.0411C0.145959 11.1157 -0.0531163 10.0036 0.0121683 9H2.01217C1.9666 9.70048 2.21989 10.6277 2.51534 11.2736C2.81079 11.9195 3.42548 12.5441 4 13L2.51534 14.5Z" fill="#FBBC04"/>
<path d="M14 9C14 10.1573 13.6095 12.2899 12.8756 13.2614C12.1417 14.2328 11.0957 15.0015 9.86361 15.475C8.63155 15.9484 7.26605 16.1063 5.93166 15.9297C4.59728 15.7531 3.50803 15.27 2.5 14.5L4 13C4.64558 13.4931 5.46121 13.6845 6.3158 13.7976C7.17039 13.9107 8.04491 13.8096 8.83396 13.5064C9.62302 13.2032 10.2929 12.7108 10.763 12.0887C11.233 11.4666 12 9.74119 12 9H14Z" fill="#EA4335"/>
<path d="M6 15.9322L7 16L8 15.9322V19H6V15.9322Z" fill="#34A853"/>
<path d="M4 3C4 1.34315 5.34315 0 7 0C8.65685 0 10 1.34315 10 3V9C10 10.6569 8.65685 12 7 12C5.34315 12 4 10.6569 4 9V3Z" fill="#4285F4"/>
</svg>
